<?xml version="1.0" encoding="UTF-8"?>
<svg width="20px" height="20px" viewBox="0 0 20 20" version="1.1" xmlns="http://www.w3.org/2000/svg" xmlns:xlink="http://www.w3.org/1999/xlink">
    <!-- Generator: Sketch 57.1 (83088) - https://sketch.com -->
    <title>btn_icon_add</title>
    <desc>Created with Sketch.</desc>
    <g id="药店管理" stroke="none" stroke-width="1" fill="none" fill-rule="evenodd">
        <g transform="translate(-506.000000, -291.000000)" fill="#FFFFFF" fill-rule="nonzero" id="按钮/新建">
            <g transform="translate(496.000000, 280.000000)">
                <g id="btn_icon_add" transform="translate(10.000000, 11.000000)">
                    <path d="M10,4 C10.2761424,4 10.5,4.22385763 10.5,4.5 L10.5,9.5 L15.5,9.5 C15.7761424,9.5 16,9.72385763 16,10 C16,10.2761424 15.7761424,10.5 15.5,10.5 L10.5,10.5 L10.5,15.5 C10.5,15.7761424 10.2761424,16 10,16 C9.72385763,16 9.5,15.7761424 9.5,15.5 L9.5,10.499 L4.5,10.5 C4.22385763,10.5 4,10.2761424 4,10 C4,9.72385763 4.22385763,9.5 4.5,9.5 L9.5,9.499 L9.5,4.5 C9.5,4.22385763 9.72385763,4 10,4 Z" id="Combined-Shape"></path>
                </g>
            </g>
        </g>
    </g>
</svg>