<?xml version="1.0" encoding="UTF-8"?>
<svg width="20px" height="20px" viewBox="0 0 20 20" version="1.1" xmlns="http://www.w3.org/2000/svg" xmlns:xlink="http://www.w3.org/1999/xlink">
    <!-- Generator: Sketch 57.1 (83088) - https://sketch.com -->
    <title>btn_icon_export</title>
    <desc>Created with Sketch.</desc>
    <g id="随访管理" stroke="none" stroke-width="1" fill="none" fill-rule="evenodd">
        <g id="随访管理-患者申请" transform="translate(-382.000000, -423.000000)" fill="#FFFFFF" fill-rule="nonzero">
            <g id="按钮/导出" transform="translate(356.000000, 411.000000)">
                <g id="btn_icon_export">
                    <g transform="translate(26.000000, 12.000000)">
                        <path d="M4,1.5 L16,1.5 C17.3254834,1.5 18.4100387,2.53153594 18.4946823,3.83562431 L18.5,4 L18.5,5 C18.5,5.27614237 18.2761424,5.5 18,5.5 C17.7545401,5.5 17.5503916,5.32312484 17.5080557,5.08987563 L17.5,5 L17.5,4 C17.5,3.22030388 16.9051119,2.57955132 16.14446,2.50686658 L16,2.5 L4,2.5 C3.22030388,2.5 2.57955132,3.09488808 2.50686658,3.85553999 L2.5,4 L2.5,16 C2.5,16.7796961 3.09488808,17.4204487 3.85553999,17.4931334 L4,17.5 L16,17.5 C16.7796961,17.5 17.4204487,16.9051119 17.4931334,16.14446 L17.5,16 L17.5,15 C17.5,14.7238576 17.7238576,14.5 18,14.5 C18.2454599,14.5 18.4496084,14.6768752 18.4919443,14.9101244 L18.5,15 L18.5,16 C18.5,17.3254834 17.4684641,18.4100387 16.1643757,18.4946823 L16,18.5 L4,18.5 C2.6745166,18.5 1.58996133,17.4684641 1.50531768,16.1643757 L1.5,16 L1.5,4 C1.5,2.6745166 2.53153594,1.58996133 3.83562431,1.50531768 L4,1.5 L16,1.5 Z M14.6570028,6.63619656 C14.8579259,6.44676446 15.1743713,6.45607974 15.3638034,6.65700283 L15.3638034,6.65700283 L18.1922306,9.65700283 C18.373826,9.84961386 18.373826,10.1503861 18.1922306,10.3429972 L18.1922306,10.3429972 L15.3638034,13.3429972 C15.1743713,13.5439203 14.8579259,13.5532355 14.6570028,13.3638034 C14.4560797,13.1743713 14.4467645,12.8579259 14.6361966,12.6570028 L14.6361966,12.6570028 L16.67,10.5 L8.5,10.5 C8.22385763,10.5 8,10.2761424 8,10 C8,9.72385763 8.22385763,9.5 8.5,9.5 L16.67,9.5 L14.6361966,7.34299717 C14.4678125,7.16439887 14.4564633,6.89452367 14.5971348,6.7037121 Z" id="Combined-Shape"></path>
                    </g>
                </g>
            </g>
        </g>
    </g>
</svg>