<?xml version="1.0" encoding="UTF-8"?>
<svg width="18px" height="18px" viewBox="0 0 18 18" version="1.1" xmlns="http://www.w3.org/2000/svg" xmlns:xlink="http://www.w3.org/1999/xlink">
    <title>icon_download</title>
    <g id="药店管理（一期）" stroke="none" stroke-width="1" fill="none" fill-rule="evenodd">
        <g id="药店管理-随访卡片" transform="translate(-930.000000, -877.000000)" fill-rule="nonzero">
            <g id="Group-2" transform="translate(757.000000, 162.000000)">
                <g id="btn下载" transform="translate(146.000000, 702.000000)">
                    <g id="icon_download" transform="translate(36.000000, 21.500000) rotate(-90.000000) translate(-36.000000, -21.500000) translate(27.500000, 13.500000)">
                        <path d="M8,14 C8,15.1045695 7.1045695,16 6,16 L2,16 C0.8954305,16 0,15.1045695 0,14 L0,2 C0,0.8954305 0.8954305,0 2,0 L6,0 C7.1045695,0 8,0.8954305 8,2" id="Path" stroke="#FFFFFF" stroke-linecap="round"></path>
                        <path d="M12.6570028,4.63619656 C12.8579259,4.44676446 13.1743713,4.45607974 13.3638034,4.65700283 L13.3638034,4.65700283 L16.1922306,7.65700283 C16.373826,7.84961386 16.373826,8.15038614 16.1922306,8.34299717 L16.1922306,8.34299717 L13.3638034,11.3429972 C13.1743713,11.5439203 12.8579259,11.5532355 12.6570028,11.3638034 C12.4560797,11.1743713 12.4467645,10.8579259 12.6361966,10.6570028 L12.6361966,10.6570028 L14.67,8.49999864 L6.5,8.5 C6.22385763,8.5 6,8.27614237 6,8 C6,7.72385763 6.22385763,7.5 6.5,7.5 L14.67,7.49999864 L12.6361966,5.34299717 C12.4678125,5.16439887 12.4564633,4.89452367 12.5971348,4.7037121 Z" id="Combined-Shape" fill="#FFFFFF" transform="translate(11.164214, 8.000000) rotate(-180.000000) translate(-11.164214, -8.000000) "></path>
                    </g>
                </g>
            </g>
        </g>
    </g>
</svg>