<?xml version="1.0" encoding="UTF-8"?>
<svg width="32px" height="32px" viewBox="0 0 32 32" version="1.1" xmlns="http://www.w3.org/2000/svg" xmlns:xlink="http://www.w3.org/1999/xlink">
    <!-- Generator: Sketch 64 (93537) - https://sketch.com -->
    <title>lftnav_icon_11_sel</title>
    <desc>Created with Sketch.</desc>
    <g id="图标汇总" stroke="none" stroke-width="1" fill="none" fill-rule="evenodd">
        <g id="绿谷后台图标汇总" transform="translate(-988.000000, -257.000000)" fill-rule="nonzero">
            <g id="icon/订单管理/未选中-copy" transform="translate(988.000000, 257.000000)">
                <path d="M21,5 L24.1818182,5 C25.1859723,5 26,5.93613189 26,7.09090909 C26,11.5042939 26,14.8143326 26,17.021025 M18,28 C16.1818182,28 11.4545455,28 7.81818182,28 C6.81402773,28 6,27.0638681 6,25.9090909 L6,7.09090909 C6,5.93613189 6.81402773,5 7.81818182,5 L11,5" id="Shape" stroke="#73A81C" stroke-width="1.5" stroke-linecap="round"></path>
                <rect id="Rectangle" stroke="#73A81C" stroke-width="1.5" stroke-linecap="round" x="11" y="3.5" width="10" height="3" rx="1.5"></rect>
                <rect id="Rectangle" fill="#73A81C" x="10" y="11" width="12" height="1.5" rx="0.75"></rect>
                <rect id="Rectangle-Copy-2" fill="#73A81C" x="10" y="15.5" width="12" height="1.5" rx="0.75"></rect>
                <rect id="Rectangle-Copy-3" fill="#73A81C" x="10" y="20" width="8" height="1.5" rx="0.75"></rect>
                <polygon id="Rectangle" fill="#73A81C" transform="translate(24.000000, 24.000000) rotate(-315.000000) translate(-24.000000, -24.000000) " points="23 18.4142136 23 27.3752601 24 29.5857864 25 27.3752601 25 18.4142136"></polygon>
            </g>
        </g>
    </g>
</svg>