<?xml version="1.0" encoding="UTF-8"?>
<svg width="32px" height="32px" viewBox="0 0 32 32" version="1.1" xmlns="http://www.w3.org/2000/svg" xmlns:xlink="http://www.w3.org/1999/xlink">
    <!-- Generator: Sketch 57.1 (83088) - https://sketch.com -->
    <title>icon/医生管理/未选中</title>
    <desc>Created with Sketch.</desc>
    <g id="icon/医生管理/未选中" stroke="none" stroke-width="1" fill="none" fill-rule="evenodd">
        <rect id="矩形" fill="#000000" fill-rule="nonzero" opacity="0" x="0" y="0" width="32" height="32"></rect>
        <rect id="Rectangle" fill="#000000" fill-rule="nonzero" opacity="0" x="0" y="0" width="32" height="32"></rect>
        <path d="M22.0322664,10.5 L8.96773357,10.5 C8.43330279,10.5 8,10.1641874 8,9.75 C8,9.33581257 8.43330279,9 8.96773357,9 L22.0322664,9 C22.5666972,9 23,9.33581257 23,9.75 C23,10.1641651 22.5666972,10.5 22.0322664,10.5 Z" id="Path" fill="#666666" fill-rule="nonzero"></path>
        <path d="M9,4 C11.3333333,3.33333333 13.6666667,3 16,3 C18.3333333,3 20.6666667,3.33333333 23,4 L23,14 C23,17.8659932 19.8659932,21 16,21 C12.1340068,21 9,17.8659932 9,14 L9,4 L9,4 Z" id="Rectangle" stroke="#666666" stroke-width="1.5" stroke-linecap="round" stroke-linejoin="round" fill-rule="nonzero"></path>
        <path d="M11.2299834,18.9865737 C7.54370593,20.6017728 5,24.0308344 5,28 C11.3385482,28 21.2171618,28 27,28 L27,28" id="Path" stroke="#666666" stroke-width="1.5" stroke-linecap="round" stroke-linejoin="round" fill-rule="nonzero"></path>
        <circle id="Oval" stroke="#666666" stroke-width="1.5" fill="#FFFFFF" fill-rule="nonzero" stroke-linecap="round" stroke-linejoin="round" cx="9" cy="8" r="4"></circle>
        <circle id="Oval" fill="#666666" fill-rule="nonzero" cx="9" cy="8" r="1"></circle>
        <path d="M25,19.25 C25.4142136,19.25 25.75,19.5857864 25.75,20 L25.75,22 L27.75,22 C28.1642136,22 28.5,22.3357864 28.5,22.75 C28.5,23.1642136 28.1642136,23.5 27.75,23.5 L25.749,23.5 L25.75,25.5 C25.75,25.9142136 25.4142136,26.25 25,26.25 C24.5857864,26.25 24.25,25.9142136 24.25,25.5 L24.249,23.5 L22.25,23.5 C21.8357864,23.5 21.5,23.1642136 21.5,22.75 C21.5,22.3357864 21.8357864,22 22.25,22 L24.25,22 L24.25,20 C24.25,19.5857864 24.5857864,19.25 25,19.25 Z" id="Combined-Shape" fill="#73A81C" fill-rule="nonzero"></path>
    </g>
</svg>