<?xml version="1.0" encoding="UTF-8"?>
<svg width="32px" height="32px" viewBox="0 0 32 32" version="1.1" xmlns="http://www.w3.org/2000/svg" xmlns:xlink="http://www.w3.org/1999/xlink">
    <!-- Generator: Sketch 64 (93537) - https://sketch.com -->
    <title>lftnav_icon_07_def</title>
    <desc>Created with Sketch.</desc>
    <defs>
        <filter x="-11.7%" y="-3.1%" width="123.3%" height="106.2%" filterUnits="objectBoundingBox" id="filter-1">
            <feOffset dx="2" dy="0" in="SourceAlpha" result="shadowOffsetOuter1"></feOffset>
            <feGaussianBlur stdDeviation="8" in="shadowOffsetOuter1" result="shadowBlurOuter1"></feGaussianBlur>
            <feColorMatrix values="0 0 0 0 0   0 0 0 0 0   0 0 0 0 0  0 0 0 0.04 0" type="matrix" in="shadowBlurOuter1" result="shadowMatrixOuter1"></feColorMatrix>
            <feMerge>
                <feMergeNode in="shadowMatrixOuter1"></feMergeNode>
                <feMergeNode in="SourceGraphic"></feMergeNode>
            </feMerge>
        </filter>
    </defs>
    <g id="医生管理" stroke="none" stroke-width="1" fill="none" fill-rule="evenodd">
        <g id="医生管理（横向滚动）" transform="translate(-32.000000, -612.000000)" fill-rule="nonzero">
            <g id="左侧导航栏" filter="url(#filter-1)">
                <g id="导航栏/未选中-copy-5" transform="translate(0.000000, 591.000000)">
                    <g id="医生管理" transform="translate(32.000000, 21.000000)">
                        <g id="Group">
                            <path d="M14.5,5 L17.5,5 M23.0081754,5 L25,5 C26.1045695,5 27,5.8954305 27,7 L27,25 C27,26.1045695 26.1045695,27 25,27 L7,27 C5.8954305,27 5,26.1045695 5,25 L5,7 C5,5.8954305 5.8954305,5 7,5 L9,5" id="Shape" stroke="#666666" stroke-width="1.5" stroke-linecap="round"></path>
                            <rect id="Rectangle" fill="#666666" x="11" y="2" width="1.5" height="6" rx="0.75"></rect>
                            <rect id="Rectangle-Copy" fill="#666666" x="19.5" y="2" width="1.5" height="6" rx="0.75"></rect>
                            <rect id="Rectangle" fill="#666666" x="10" y="11" width="12" height="1.5" rx="0.75"></rect>
                            <rect id="Rectangle-Copy-2" fill="#666666" x="10" y="15.5" width="12" height="1.5" rx="0.75"></rect>
                            <rect id="Rectangle-Copy-3" fill="#73A81C" x="10" y="20" width="8" height="1.5" rx="0.75"></rect>
                        </g>
                    </g>
                </g>
            </g>
        </g>
    </g>
</svg>