<?xml version="1.0" encoding="UTF-8"?>
<svg width="32px" height="32px" viewBox="0 0 32 32" version="1.1" xmlns="http://www.w3.org/2000/svg" xmlns:xlink="http://www.w3.org/1999/xlink">
    <!-- Generator: Sketch 64 (93537) - https://sketch.com -->
    <title>lftnav_icon_08_sel</title>
    <desc>Created with Sketch.</desc>
    <g id="图标汇总" stroke="none" stroke-width="1" fill="none" fill-rule="evenodd">
        <g id="绿谷后台图标汇总" transform="translate(-1228.000000, -257.000000)" fill-rule="nonzero">
            <g id="icon/专家团队管理/未选中-copy" transform="translate(1228.000000, 257.000000)">
                <g id="Group">
                    <path d="M9,4 C11.3333333,3.33333333 13.6666667,3 16,3 C18.3333333,3 20.6666667,3.33333333 23,4 L23,14 C23,17.8659932 19.8659932,21 16,21 C12.1340068,21 9,17.8659932 9,14 L9,4 L9,4 Z" id="Rectangle" stroke="#73A81C" stroke-width="1.5" stroke-linecap="round" stroke-linejoin="round"></path>
                    <path d="M22.096782,10.5 L9.903218,10.5 C9.40441594,10.5 9,10.1641874 9,9.75 C9,9.33581257 9.40441594,9 9.903218,9 L22.096782,9 C22.5955841,9 23,9.33581257 23,9.75 C23,10.1641651 22.5955841,10.5 22.096782,10.5 Z" id="Path" fill="#73A81C"></path>
                    <path d="M10.8775978,19.1481497 C7.3825778,20.8230956 5,24.158602 5,28 C11.3385482,28 21.2171618,28 27,28" id="Path" stroke="#73A81C" stroke-width="1.5" stroke-linecap="round" stroke-linejoin="round"></path>
                    <path d="M25,19.25 C25.4142136,19.25 25.75,19.5857864 25.75,20 L25.75,22 L27.75,22 C28.1642136,22 28.5,22.3357864 28.5,22.75 C28.5,23.1642136 28.1642136,23.5 27.75,23.5 L25.749,23.5 L25.75,25.5 C25.75,25.9142136 25.4142136,26.25 25,26.25 C24.5857864,26.25 24.25,25.9142136 24.25,25.5 L24.249,23.5 L22.25,23.5 C21.8357864,23.5 21.5,23.1642136 21.5,22.75 C21.5,22.3357864 21.8357864,22 22.25,22 L24.25,22 L24.25,20 C24.25,19.5857864 24.5857864,19.25 25,19.25 Z" id="Combined-Shape" fill="#73A81C"></path>
                    <g id="Group-Copy" transform="translate(1.000000, 7.000000)" fill="#73A81C">
                        <path d="M7.84444444,0.25 L7.99988889,0.252 L8.00031307,1.75083811 L7.84444444,1.75 L7.84444444,1.75 C6.64382649,1.75 5.4423775,1.89918316 4.23888889,2.19810115 L4.23888889,7.84444444 C4.23888889,9.83573779 5.8531511,11.45 7.84444444,11.45 C8.37947724,11.45 8.88729132,11.3334628 9.34388807,11.1243872 C9.64958164,11.5435354 10.001462,11.9276624 10.3916026,12.2691572 C9.64196558,12.7025979 8.77209694,12.95 7.84444444,12.95 C6.65880736,12.95 5.5675632,12.5458558 4.70095629,11.8678118 C2.88470944,12.8505758 1.75,14.6181896 1.75,16.5555556 C1.75,16.9697691 1.41421356,17.3055556 1,17.3055556 C0.585786438,17.3055556 0.25,16.9697691 0.25,16.5555556 C0.25,14.1751957 1.55770972,12.0169602 3.64343828,10.7454217 C3.07301666,9.92250966 2.73888889,8.92249691 2.73888889,7.84444444 L2.73888889,1.62222222 C2.73888889,1.28736195 2.96087187,0.993072452 3.28284804,0.901079261 C4.80105254,0.467306548 6.32219838,0.25 7.84444444,0.25 Z" id="Combined-Shape"></path>
                    </g>
                </g>
            </g>
        </g>
    </g>
</svg>