<?xml version="1.0" encoding="UTF-8"?>
<svg width="32px" height="32px" viewBox="0 0 32 32" version="1.1" xmlns="http://www.w3.org/2000/svg" xmlns:xlink="http://www.w3.org/1999/xlink">
    <!-- Generator: Sketch 64 (93537) - https://sketch.com -->
    <title>lftnav_icon_08_def</title>
    <desc>Created with Sketch.</desc>
    <defs>
        <filter x="-11.7%" y="-3.1%" width="123.3%" height="106.2%" filterUnits="objectBoundingBox" id="filter-1">
            <feOffset dx="2" dy="0" in="SourceAlpha" result="shadowOffsetOuter1"></feOffset>
            <feGaussianBlur stdDeviation="8" in="shadowOffsetOuter1" result="shadowBlurOuter1"></feGaussianBlur>
            <feColorMatrix values="0 0 0 0 0   0 0 0 0 0   0 0 0 0 0  0 0 0 0.04 0" type="matrix" in="shadowBlurOuter1" result="shadowMatrixOuter1"></feColorMatrix>
            <feMerge>
                <feMergeNode in="shadowMatrixOuter1"></feMergeNode>
                <feMergeNode in="SourceGraphic"></feMergeNode>
            </feMerge>
        </filter>
    </defs>
    <g id="医生管理" stroke="none" stroke-width="1" fill="none" fill-rule="evenodd">
        <g id="医生管理（横向滚动）" transform="translate(-32.000000, -247.000000)" fill-rule="nonzero">
            <g id="左侧导航栏" filter="url(#filter-1)">
                <g id="导航栏/未选中-copy-6" transform="translate(0.000000, 226.000000)">
                    <g id="Group-2">
                        <g id="医生管理" transform="translate(32.000000, 21.000000)">
                            <g id="Group-Copy" transform="translate(1.000000, 7.000000)" fill="#666666">
                                <path d="M4.31944682,10.3779261 C1.84412024,11.5700612 0.25,13.9274217 0.25,16.5555556 C0.25,16.9697691 0.585786438,17.3055556 1,17.3055556 C1.41421356,17.3055556 1.75,16.9697691 1.75,16.5555556 C1.75,14.5242196 2.99745489,12.6795025 4.97030819,11.7293622 C5.34349696,11.5496317 5.50032595,11.1014022 5.32059555,10.7282134 C5.14086515,10.3550247 4.69263559,10.1981957 4.31944682,10.3779261 Z" id="Shape"></path>
                                <path d="M7.84444444,0.25 L7.99988889,0.252 L8.00031307,1.75083811 C7.94835524,1.75027936 7.89639906,1.75 7.84444444,1.75 C6.64382649,1.75 5.4423775,1.89918316 4.23888889,2.19810115 L4.23888889,7.84444444 C4.23888889,9.83573779 5.8531511,11.45 7.84444444,11.45 C8.37947724,11.45 8.88729132,11.3334628 9.34388807,11.1243872 C9.64958164,11.5435354 10.001462,11.9276624 10.3916026,12.2691572 C9.64196558,12.7025979 8.77209694,12.95 7.84444444,12.95 C5.02472397,12.95 2.73888889,10.6641649 2.73888889,7.84444444 L2.73888889,1.62222222 C2.73888889,1.28736195 2.96087187,0.993072452 3.28284804,0.901079261 C4.80105254,0.467306548 6.32219838,0.25 7.84444444,0.25 Z" id="Combined-Shape"></path>
                            </g>
                            <path d="M9,4 C11.3333333,3.33333333 13.6666667,3 16,3 C18.3333333,3 20.6666667,3.33333333 23,4 L23,14 C23,17.8659932 19.8659932,21 16,21 C12.1340068,21 9,17.8659932 9,14 L9,4 L9,4 Z" id="Rectangle" stroke="#666666" stroke-width="1.5" stroke-linecap="round" stroke-linejoin="round"></path>
                            <path d="M22.096782,10.5 L9.903218,10.5 C9.40441594,10.5 9,10.1641874 9,9.75 C9,9.33581257 9.40441594,9 9.903218,9 L22.096782,9 C22.5955841,9 23,9.33581257 23,9.75 C23,10.1641651 22.5955841,10.5 22.096782,10.5 Z" id="Path" fill="#666666"></path>
                            <path d="M10.896453,19.1391348 C7.39114973,20.8111077 5,24.151698 5,28 C11.3385482,28 21.2171618,28 27,28" id="Path" stroke="#666666" stroke-width="1.5" stroke-linecap="round" stroke-linejoin="round"></path>
                            <path d="M25,19.25 C25.4142136,19.25 25.75,19.5857864 25.75,20 L25.75,22 L27.75,22 C28.1642136,22 28.5,22.3357864 28.5,22.75 C28.5,23.1642136 28.1642136,23.5 27.75,23.5 L25.749,23.5 L25.75,25.5 C25.75,25.9142136 25.4142136,26.25 25,26.25 C24.5857864,26.25 24.25,25.9142136 24.25,25.5 L24.249,23.5 L22.25,23.5 C21.8357864,23.5 21.5,23.1642136 21.5,22.75 C21.5,22.3357864 21.8357864,22 22.25,22 L24.25,22 L24.25,20 C24.25,19.5857864 24.5857864,19.25 25,19.25 Z" id="Combined-Shape" fill="#73A81C"></path>
                        </g>
                    </g>
                </g>
            </g>
        </g>
    </g>
</svg>