<?xml version="1.0" encoding="UTF-8"?>
<svg width="32px" height="32px" viewBox="0 0 32 32" version="1.1" xmlns="http://www.w3.org/2000/svg" xmlns:xlink="http://www.w3.org/1999/xlink">
    <!-- Generator: Sketch 57.1 (83088) - https://sketch.com -->
    <title>lftnav_icon_10_sel</title>
    <desc>Created with Sketch.</desc>
    <defs>
        <filter x="-11.7%" y="-3.1%" width="123.3%" height="106.2%" filterUnits="objectBoundingBox" id="filter-1">
            <feOffset dx="2" dy="0" in="SourceAlpha" result="shadowOffsetOuter1"></feOffset>
            <feGaussianBlur stdDeviation="8" in="shadowOffsetOuter1" result="shadowBlurOuter1"></feGaussianBlur>
            <feColorMatrix values="0 0 0 0 0   0 0 0 0 0   0 0 0 0 0  0 0 0 0.04 0" type="matrix" in="shadowBlurOuter1" result="shadowMatrixOuter1"></feColorMatrix>
            <feMerge>
                <feMergeNode in="shadowMatrixOuter1"></feMergeNode>
                <feMergeNode in="SourceGraphic"></feMergeNode>
            </feMerge>
        </filter>
    </defs>
    <g id="标签管理" stroke="none" stroke-width="1" fill="none" fill-rule="evenodd" stroke-linecap="round">
        <g transform="translate(-32.000000, -758.000000)" fill-rule="nonzero" id="左侧导航栏/整体" stroke="#73A81B" stroke-width="1.5">
            <g filter="url(#filter-1)">
                <g id="导航栏/未选中-copy-8" transform="translate(0.000000, 737.000000)">
                    <g id="Group">
                        <g id="随访管理" transform="translate(30.000000, 19.000000)">
                            <g id="Group" transform="translate(16.000000, 16.500000) rotate(-45.000000) translate(-16.000000, -16.500000) translate(7.000000, 3.000000)">
                                <path d="M0.585786438,8.41421356 L7.58578644,1.41421356 C8.36683502,0.633164979 9.63316498,0.633164979 10.4142136,1.41421356 L17.4142136,8.41421356 C17.7892863,8.78928632 18,9.29799415 18,9.82842712 L18,25 C18,26.1045695 17.1045695,27 16,27 L2,27 C0.8954305,27 1.3527075e-16,26.1045695 0,25 L0,9.82842712 C-1.39722693e-15,9.29799415 0.210713681,8.78928632 0.585786438,8.41421356 Z" id="Rectangle"></path>
                                <circle id="Oval" cx="9" cy="11" r="3"></circle>
                                <path d="M4,22 L14,22" id="Line"></path>
                            </g>
                        </g>
                    </g>
                </g>
            </g>
        </g>
    </g>
</svg>