<?xml version="1.0" encoding="UTF-8"?>
<svg width="32px" height="32px" viewBox="0 0 32 32" version="1.1" xmlns="http://www.w3.org/2000/svg" xmlns:xlink="http://www.w3.org/1999/xlink">
    <!-- Generator: Sketch 64 (93537) - https://sketch.com -->
    <title>lftnav_icon_07_sel</title>
    <desc>Created with Sketch.</desc>
    <g id="图标汇总" stroke="none" stroke-width="1" fill="none" fill-rule="evenodd">
        <g id="绿谷后台图标汇总" transform="translate(-700.000000, -257.000000)" fill-rule="nonzero">
            <g id="lftnav_icon_07_sel" transform="translate(700.000000, 257.000000)">
                <g id="Group">
                    <path d="M14.5,5 L17.5,5 M23.0081754,5 L25,5 C26.1045695,5 27,5.8954305 27,7 L27,25 C27,26.1045695 26.1045695,27 25,27 L7,27 C5.8954305,27 5,26.1045695 5,25 L5,7 C5,5.8954305 5.8954305,5 7,5 L9,5" id="Shape" stroke="#73A81C" stroke-width="1.5" stroke-linecap="round"></path>
                    <rect id="Rectangle" fill="#73A81C" x="11" y="2" width="1.5" height="6" rx="0.75"></rect>
                    <rect id="Rectangle-Copy" fill="#73A81C" x="19.5" y="2" width="1.5" height="6" rx="0.75"></rect>
                    <rect id="Rectangle" fill="#73A81C" x="10" y="11" width="12" height="1.5" rx="0.75"></rect>
                    <rect id="Rectangle-Copy-2" fill="#73A81C" x="10" y="15.5" width="12" height="1.5" rx="0.75"></rect>
                    <rect id="Rectangle-Copy-3" fill="#73A81C" x="10" y="20" width="8" height="1.5" rx="0.75"></rect>
                </g>
            </g>
        </g>
    </g>
</svg>