<?xml version="1.0" encoding="UTF-8"?>
<svg width="32px" height="32px" viewBox="0 0 32 32" version="1.1" xmlns="http://www.w3.org/2000/svg" xmlns:xlink="http://www.w3.org/1999/xlink">
    <!-- Generator: Sketch 64 (93537) - https://sketch.com -->
    <title>lftnav_icon_03_def</title>
    <desc>Created with Sketch.</desc>
    <defs>
        <filter x="-11.7%" y="-3.1%" width="123.3%" height="106.2%" filterUnits="objectBoundingBox" id="filter-1">
            <feOffset dx="2" dy="0" in="SourceAlpha" result="shadowOffsetOuter1"></feOffset>
            <feGaussianBlur stdDeviation="8" in="shadowOffsetOuter1" result="shadowBlurOuter1"></feGaussianBlur>
            <feColorMatrix values="0 0 0 0 0   0 0 0 0 0   0 0 0 0 0  0 0 0 0.04 0" type="matrix" in="shadowBlurOuter1" result="shadowMatrixOuter1"></feColorMatrix>
            <feMerge>
                <feMergeNode in="shadowMatrixOuter1"></feMergeNode>
                <feMergeNode in="SourceGraphic"></feMergeNode>
            </feMerge>
        </filter>
    </defs>
    <g id="医生管理" stroke="none" stroke-width="1" fill="none" fill-rule="evenodd">
        <g id="医生管理（横向滚动）" transform="translate(-32.000000, -320.000000)" fill-rule="nonzero">
            <g id="左侧导航栏" filter="url(#filter-1)">
                <g id="导航栏/未选中-copy" transform="translate(0.000000, 299.000000)">
                    <g id="Group-2">
                        <g id="医生管理" transform="translate(32.000000, 21.000000)">
                            <g id="Group">
                                <path d="M22.096782,12.5 L9.903218,12.5 C9.40441594,12.5 9,12.1641874 9,11.75 C9,11.3358126 9.40441594,11 9.903218,11 L22.096782,11 C22.5955841,11 23,11.3358126 23,11.75 C23,12.1641651 22.5955841,12.5 22.096782,12.5 Z" id="Path" fill="#666666"></path>
                                <rect id="Rectangle" stroke="#666666" stroke-width="1.5" stroke-linecap="round" stroke-linejoin="round" x="9" y="3" width="14" height="18" rx="7"></rect>
                                <path d="M11.2299834,18.9865737 C7.54370593,20.6017728 5,24.0308344 5,28 C11.3385482,28 21.2171618,28 27,28 L27,28" id="Path" stroke="#666666" stroke-width="1.5" stroke-linecap="round" stroke-linejoin="round"></path>
                                <path d="M25,19.25 C25.4142136,19.25 25.75,19.5857864 25.75,20 L25.75,22 L27.75,22 C28.1642136,22 28.5,22.3357864 28.5,22.75 C28.5,23.1642136 28.1642136,23.5 27.75,23.5 L25.749,23.5 L25.75,25.5 C25.75,25.9142136 25.4142136,26.25 25,26.25 C24.5857864,26.25 24.25,25.9142136 24.25,25.5 L24.249,23.5 L22.25,23.5 C21.8357864,23.5 21.5,23.1642136 21.5,22.75 C21.5,22.3357864 21.8357864,22 22.25,22 L24.25,22 L24.25,20 C24.25,19.5857864 24.5857864,19.25 25,19.25 Z" id="Combined-Shape" fill="#73A81C"></path>
                            </g>
                        </g>
                    </g>
                </g>
            </g>
        </g>
    </g>
</svg>