<?xml version="1.0" encoding="UTF-8"?>
<svg width="32px" height="32px" viewBox="0 0 32 32" version="1.1" xmlns="http://www.w3.org/2000/svg" xmlns:xlink="http://www.w3.org/1999/xlink">
    <!-- Generator: Sketch 64 (93537) - https://sketch.com -->
    <title>lftnav_icon_14_def</title>
    <desc>Created with Sketch.</desc>
    <g id="图标汇总" stroke="none" stroke-width="1" fill="none" fill-rule="evenodd">
        <g id="绿谷后台图标汇总" transform="translate(-1320.000000, -329.000000)" fill-rule="nonzero">
            <g id="icon/医院管理/未选中" transform="translate(1320.000000, 329.000000)">
                <path d="M7,5 L19,5 C20.1045695,5 21,5.8954305 21,7 L21,27 L21,27 L5,27 L5,7 C5,5.8954305 5.8954305,5 7,5 Z" id="Rectangle" stroke="#666666" stroke-width="1.5" stroke-linecap="round" stroke-linejoin="round"></path>
                <path d="M21,14 L25,14 C26.1045695,14 27,14.8954305 27,16 L27,27 L27,27 L21,27 L21,14 Z" id="Rectangle-Copy" stroke="#666666" stroke-width="1.5" stroke-linecap="round" stroke-linejoin="round"></path>
                <path d="M13,9 C13.4142136,9 13.75,9.33578644 13.75,9.75 L13.75,11.25 L15.25,11.25 C15.6642136,11.25 16,11.5857864 16,12 C16,12.4142136 15.6642136,12.75 15.25,12.75 L13.749,12.75 L13.75,14.25 C13.75,14.6642136 13.4142136,15 13,15 C12.5857864,15 12.25,14.6642136 12.25,14.25 L12.249,12.75 L10.75,12.75 C10.3357864,12.75 10,12.4142136 10,12 C10,11.5857864 10.3357864,11.25 10.75,11.25 L12.25,11.25 L12.25,9.75 C12.25,9.33578644 12.5857864,9 13,9 Z" id="Combined-Shape" fill="#73A81C"></path>
                <rect id="Rectangle" stroke="#666666" stroke-width="1.5" stroke-linecap="round" stroke-linejoin="round" x="10" y="22" width="6" height="5"></rect>
                <line x1="3" y1="27" x2="29" y2="27" id="Path-3" stroke="#666666" stroke-width="1.5" stroke-linecap="round" stroke-linejoin="round"></line>
            </g>
        </g>
    </g>
</svg>